<svg width="255" height="59" viewBox="0 0 255 59" fill="none" xmlns="http://www.w3.org/2000/svg">
<g id="Group 102">
<path id="Vector" d="M65.8431 17.7524C66.302 18.0442 66.3438 18.0858 66.3855 18.6276L66.8444 23.0449C66.8444 23.1699 66.4689 23.2532 66.4272 23.0865C65.2174 18.9193 61.8383 17.2524 57.4997 17.2524C51.534 17.2524 47.696 21.4613 47.696 27.7122C47.696 35.13 52.7439 41.0475 58.7512 41.0475C62.3806 41.0475 65.2591 39.1305 66.7609 34.7966C66.8027 34.6299 67.2198 34.7132 67.2198 34.8382L66.6358 39.2556C66.5523 39.8806 66.5106 40.0057 66.0517 40.1307C63.5487 41.1725 61.0874 41.6309 58.626 41.6309C48.6973 41.6309 44.6924 34.7966 44.6924 28.7957C44.6924 21.378 51.534 16.4189 58.9598 16.4189C61.3794 16.3772 64.2996 16.8773 65.8431 17.7524ZM69.9732 31.3794C69.9732 26.5871 74.3118 24.0867 77.8995 24.0867C82.2381 24.0867 84.7829 27.6289 84.7829 31.0877C84.7829 35.0883 81.2369 38.5054 76.9817 38.5054C72.7265 38.5054 69.9732 35.2133 69.9732 31.3794ZM82.7804 31.7961C82.7804 27.9623 80.7363 24.7118 76.94 24.7118C73.8112 24.7118 72.0173 26.9621 72.0173 30.671C72.0173 34.6716 74.1449 37.922 77.7744 37.922C80.7363 37.8804 82.7804 35.6717 82.7804 31.7961ZM104.348 38.172C103.514 38.172 102.429 38.1303 101.303 38.1303C99.9681 38.1303 98.8834 38.172 97.9239 38.172C97.8405 38.172 97.8405 37.8386 97.9239 37.8386C100.051 37.8386 100.469 37.5053 100.385 35.7967L100.01 25.9619L94.962 37.9637C94.9202 38.1303 94.5865 38.1303 94.5031 37.9637L88.9129 26.8787L88.8295 26.712L88.5792 34.9632C88.5375 37.0052 89.0798 37.797 90.4982 37.797C90.5816 37.797 90.5816 38.1303 90.4982 38.1303C89.8307 38.1303 89.1215 38.0887 88.2454 38.0887C87.4528 38.0887 86.6185 38.1303 85.951 38.1303C85.8675 38.1303 85.8675 37.797 85.951 37.797C87.4111 37.797 87.9117 37.0052 87.9951 34.9632L88.2454 25.8369C87.5362 24.9618 86.7853 24.7951 86.2013 24.7951C86.0761 24.7951 86.0761 24.4617 86.2013 24.4617C86.7436 24.4617 87.4528 24.5034 87.8283 24.5034C88.454 24.5034 88.9546 24.4617 89.2467 24.4617C89.789 24.4617 89.9559 24.7117 90.5816 26.0036L95.3791 35.5883L99.7178 25.2118C99.8846 24.7534 100.26 24.4617 100.594 24.4617C100.844 24.4617 101.47 24.5034 102.137 24.5034C103.013 24.5034 103.472 24.4617 104.098 24.4617C104.182 24.4617 104.182 24.7951 104.098 24.7951C102.513 24.7951 101.678 25.0868 101.762 26.7537L102.096 35.7967C102.137 37.5053 102.429 37.8386 104.223 37.8386C104.432 37.797 104.432 38.172 104.348 38.172ZM124.54 38.172C123.705 38.172 122.621 38.1303 121.494 38.1303C120.159 38.1303 119.075 38.172 118.115 38.172C118.032 38.172 118.032 37.8386 118.115 37.8386C120.243 37.8386 120.66 37.5053 120.576 35.7967L120.201 25.9619L115.195 37.9637C115.153 38.1303 114.819 38.1303 114.736 37.9637L109.104 26.8787L109.021 26.712L108.77 34.9632C108.729 37.0052 109.271 37.797 110.689 37.797C110.773 37.797 110.773 38.1303 110.689 38.1303C110.022 38.1303 109.313 38.0887 108.437 38.0887C107.644 38.0887 106.81 38.1303 106.142 38.1303C106.059 38.1303 106.059 37.797 106.142 37.797C107.602 37.797 108.103 37.0052 108.186 34.9632L108.437 25.8369C107.728 24.9618 106.977 24.7951 106.393 24.7951C106.267 24.7951 106.267 24.4617 106.393 24.4617C106.935 24.4617 107.644 24.5034 108.02 24.5034C108.645 24.5034 109.146 24.4617 109.438 24.4617C109.98 24.4617 110.147 24.7117 110.773 26.0036L115.57 35.5883L119.909 25.2118C120.076 24.7534 120.451 24.4617 120.785 24.4617C121.035 24.4617 121.661 24.5034 122.329 24.5034C123.205 24.5034 123.664 24.4617 124.289 24.4617C124.373 24.4617 124.373 24.7951 124.289 24.7951C122.704 24.7951 121.87 25.0868 121.953 26.7537L122.287 35.7967C122.329 37.5053 122.621 37.8386 124.414 37.8386C124.623 37.797 124.623 38.172 124.54 38.172ZM125.916 31.3794C125.916 26.5871 130.255 24.0867 133.843 24.0867C138.181 24.0867 140.726 27.6289 140.726 31.0877C140.726 35.0883 137.18 38.5054 132.925 38.5054C128.711 38.5054 125.916 35.2133 125.916 31.3794ZM138.724 31.7961C138.724 27.9623 136.679 24.7118 132.883 24.7118C129.754 24.7118 127.96 26.9621 127.96 30.671C127.96 34.6716 130.088 37.922 133.718 37.922C136.721 37.8804 138.724 35.6717 138.724 31.7961ZM157.705 24.7953C156.245 24.7953 155.661 25.587 155.661 27.629V38.5056C155.661 38.5889 155.411 38.6306 155.327 38.5472L145.649 26.8372C145.524 26.6705 145.398 26.5455 145.315 26.4205V34.9634C145.315 37.0054 145.857 37.7971 147.276 37.7971C147.359 37.7971 147.359 38.1305 147.276 38.1305C146.608 38.1305 145.899 38.0888 145.023 38.0888C144.189 38.0888 143.396 38.1305 142.687 38.1305C142.603 38.1305 142.603 37.7971 142.687 37.7971C144.147 37.7971 144.689 37.0054 144.689 34.9634V25.7954C143.938 25.0453 143.354 24.7536 142.687 24.7536C142.603 24.7536 142.603 24.4202 142.687 24.4202C143.229 24.4202 143.855 24.4619 144.314 24.4619C144.856 24.4619 145.148 24.4202 145.857 24.4202C146.358 24.4202 146.4 24.8786 147.234 25.9621L155.035 35.5468V27.6707C155.035 25.6287 154.535 24.8369 153.116 24.8369C152.991 24.8369 152.991 24.5035 153.116 24.5035C153.784 24.5035 154.493 24.5869 155.369 24.5869C156.162 24.5869 156.996 24.5035 157.705 24.5035C157.789 24.4202 157.789 24.7953 157.705 24.7953ZM179.815 24.7951C178.689 24.7951 177.896 25.2535 177.187 27.0871L172.807 38.1303C172.765 38.297 172.223 38.297 172.181 38.1303L169.261 31.9211L166.758 38.1303C166.716 38.297 166.215 38.297 166.132 38.1303L160.792 26.8787C160.041 25.2952 159.624 24.7951 158.539 24.7951C158.414 24.7951 158.414 24.4617 158.539 24.4617C159.249 24.4617 160.083 24.5451 160.792 24.5451C161.752 24.5451 162.503 24.4617 163.045 24.4617C163.128 24.4617 163.128 24.7951 163.045 24.7951C162.461 24.7951 161.919 25.1701 162.544 26.587L167.133 35.9633L168.927 31.296L166.841 26.8787C166.09 25.2952 165.798 24.7951 164.839 24.7951C164.755 24.7951 164.755 24.4617 164.839 24.4617C165.465 24.4617 166.174 24.5451 166.925 24.5451C167.676 24.5451 168.301 24.4617 168.76 24.4617C168.844 24.4617 168.844 24.7951 168.76 24.7951C167.801 24.7951 167.842 24.9617 168.593 26.587L169.928 29.3791L170.888 26.7537C171.472 25.2118 171.347 24.7951 170.512 24.7951C170.387 24.7951 170.387 24.4617 170.512 24.4617C170.929 24.4617 171.263 24.5451 171.889 24.5451C172.849 24.5451 173.224 24.4617 174.058 24.4617C174.142 24.4617 174.142 24.7951 174.058 24.7951C172.848 24.7951 172.139 25.2118 171.472 26.9204L170.22 30.0042L173.141 35.9633L176.52 26.9204C177.062 25.4202 176.687 24.7951 175.518 24.7951C175.435 24.7951 175.435 24.4617 175.518 24.4617C176.144 24.4617 176.603 24.5451 177.437 24.5451C178.397 24.5451 178.898 24.4617 179.774 24.4617C179.94 24.42 179.94 24.7951 179.815 24.7951ZM192.122 34.2548C192.039 35.1716 191.913 36.5885 191.913 37.7136C191.913 38.047 191.83 38.172 191.454 38.172H180.691C180.608 38.172 180.608 37.8386 180.691 37.8386C182.527 37.8386 182.902 37.5053 182.902 35.7967V26.8371C182.902 25.1701 182.569 24.7951 180.691 24.7951C180.608 24.7951 180.608 24.4617 180.691 24.4617H190.954C191.162 24.4617 191.204 24.5451 191.204 24.7117C191.204 25.6702 191.246 27.2121 191.246 27.9205C191.246 28.0456 190.912 28.0456 190.912 27.9205C190.745 26.1286 189.452 24.8368 187.783 24.8368H186.949C184.988 24.8368 184.613 25.1701 184.613 26.8787V30.8793C188.284 30.8376 189.41 30.6293 189.702 30.6293C189.828 30.6293 189.869 30.9626 189.869 31.2544C189.869 31.5877 189.828 31.9211 189.702 31.9211C189.452 31.9211 188.284 31.5877 184.613 31.5044V35.7133C184.613 37.3386 184.947 37.7553 186.949 37.7553H188.367C189.994 37.7553 191.288 36.2968 191.747 34.3381C191.788 34.1298 192.122 34.1298 192.122 34.2548ZM209.643 38.172C208.559 38.172 207.307 38.047 206.223 38.047C205.346 38.047 204.637 38.172 203.803 38.172C203.636 38.172 203.636 37.8386 203.803 37.8386C205.263 37.8386 205.68 37.3802 204.929 35.7133L202.969 31.421H198.839L197.587 34.5465C196.586 37.0052 197.253 37.797 199.256 37.797C199.423 37.797 199.423 38.1303 199.256 38.1303C198.296 38.1303 197.754 38.0053 196.544 38.0053C195.167 38.0053 194.542 38.1303 193.415 38.1303C193.248 38.1303 193.248 37.797 193.415 37.797C195.167 37.797 195.668 37.2969 196.961 34.2548L201.175 23.9616C201.216 23.7949 201.425 23.7949 201.508 23.9616L206.223 34.1298C207.683 37.2136 208.142 37.797 209.643 37.797C209.81 37.797 209.81 38.172 209.643 38.172ZM202.76 30.8793L200.841 26.6704L199.131 30.8793H202.76ZM214.733 35.6717C214.733 37.2969 215.067 37.7137 216.86 37.7137H218.821C220.949 37.7137 222.117 36.2134 222.534 34.0881C222.576 33.9631 222.868 34.0048 222.868 34.1298C222.701 35.0883 222.659 36.5885 222.659 37.7553C222.659 38.0887 222.534 38.2137 222.2 38.2137H210.728C210.645 38.2137 210.645 37.8804 210.728 37.8804C212.564 37.8804 212.856 37.547 212.856 35.8384V26.8788C212.856 25.2119 212.522 24.8368 210.728 24.8368C210.645 24.8368 210.645 24.5034 210.728 24.5034C211.562 24.5034 212.647 24.5868 213.773 24.5868C214.983 24.5868 216.068 24.5034 216.902 24.5034C216.986 24.5034 216.986 24.8368 216.902 24.8368C214.983 24.8368 214.691 25.2119 214.691 26.8788V35.6717H214.733ZM223.66 28.2539C223.66 28.3789 223.327 28.3789 223.327 28.2539C223.452 27.4205 223.66 24.9201 223.66 23.7949C223.66 23.6283 223.994 23.5866 223.994 23.7949C223.994 24.3784 224.954 24.3784 225.538 24.3784C226.789 24.42 228.374 24.42 229.96 24.42C231.795 24.42 232.88 24.3784 233.881 24.3784C235.216 24.3784 235.925 24.295 236.134 23.6699C236.176 23.5449 236.468 23.5449 236.468 23.6699C236.384 24.7117 236.259 27.5038 236.259 28.2539C236.259 28.3789 235.925 28.3789 235.925 28.2539C235.884 25.6285 235.174 24.8368 232.963 24.8368C231.211 24.8368 230.919 25.2535 230.919 26.8371V35.7967C230.919 37.5053 231.253 37.8386 233.464 37.8386C233.589 37.8386 233.589 38.172 233.464 38.172C232.505 38.172 231.378 38.1303 230.001 38.1303C228.75 38.1303 227.498 38.172 226.581 38.172C226.455 38.172 226.455 37.8386 226.581 37.8386C228.75 37.8386 229.125 37.5053 229.125 35.7967V26.7537C229.125 25.1285 228.833 24.8368 227.04 24.8368C224.829 24.7951 224.078 25.6285 223.66 28.2539ZM254.406 38.172C253.572 38.172 252.445 38.1303 251.319 38.1303C250.109 38.1303 249.066 38.172 248.232 38.172C248.107 38.172 248.107 37.8386 248.232 37.8386C250.109 37.8386 250.401 37.5053 250.401 35.7967V31.5044H242.183V35.7967C242.183 37.5053 242.517 37.8386 244.394 37.8386C244.477 37.8386 244.477 38.172 244.394 38.172C243.56 38.172 242.475 38.1303 241.265 38.1303C240.139 38.1303 239.012 38.172 238.178 38.172C238.095 38.172 238.095 37.8386 238.178 37.8386C240.055 37.8386 240.431 37.5053 240.431 35.7967V26.8371C240.431 25.1701 240.097 24.7951 238.22 24.7951C238.136 24.7951 238.136 24.4617 238.22 24.4617C239.054 24.4617 240.139 24.5451 241.265 24.5451C242.475 24.5451 243.56 24.4617 244.394 24.4617C244.477 24.4617 244.477 24.7951 244.394 24.7951C242.558 24.7951 242.183 25.2118 242.183 26.8787V31.0043H250.401V26.8787C250.401 25.2118 250.109 24.7951 248.232 24.7951C248.107 24.7951 248.107 24.4617 248.232 24.4617C249.066 24.4617 250.109 24.5451 251.319 24.5451C252.445 24.5451 253.572 24.4617 254.406 24.4617C254.531 24.4617 254.531 24.7951 254.406 24.7951C252.529 24.7951 252.153 25.1285 252.153 26.8371V35.7967C252.153 37.5053 252.487 37.8386 254.406 37.8386C254.531 37.797 254.531 38.172 254.406 38.172Z" fill="#003A70"/>
<path id="Vector_2" d="M99.1753 52.0914C100.51 52.9249 101.887 53.675 101.887 55.4252C101.887 57.1338 100.552 58.509 98.1741 58.509C97.298 58.509 96.4637 58.3007 95.6293 57.8839C95.5042 57.8006 95.5042 57.7172 95.4625 57.5506L95.2122 55.0919C95.2122 54.9668 95.379 54.9668 95.4207 55.0502C95.7128 56.5087 96.6306 58.2173 98.5496 58.2173C99.6342 58.2173 100.719 57.7172 100.719 56.1337C100.719 54.3834 99.3839 53.6333 98.0907 52.8415C96.7974 52.0498 95.5042 51.2996 95.5042 49.6327C95.5042 47.7158 97.2146 46.799 98.8833 46.799C99.5508 46.799 100.302 46.924 101.011 47.2157C101.178 47.2991 101.303 47.3824 101.303 47.5074L101.428 49.5911C101.428 49.6744 101.261 49.7161 101.219 49.5911C101.094 48.6326 100.385 47.049 98.633 47.049C97.2146 47.049 96.6306 48.0492 96.6306 49.091C96.6306 50.5912 97.9238 51.2996 99.1753 52.0914ZM114.402 55.6336C114.319 56.2587 114.235 57.2588 114.235 58.009C114.235 58.2173 114.152 58.3007 113.943 58.3007H106.351C106.267 58.3007 106.267 58.0923 106.351 58.0923C107.686 58.0923 107.894 57.8839 107.894 56.8421V48.4659C107.894 47.4241 107.686 47.2157 106.351 47.2157C106.267 47.2157 106.267 47.0074 106.351 47.0074H113.61C113.735 47.0074 113.776 47.049 113.776 47.1741L113.818 49.4244C113.818 49.466 113.61 49.466 113.61 49.4244C113.526 48.1325 112.775 47.3824 111.607 47.3824H110.522C109.313 47.3824 109.062 47.5908 109.062 48.5493V52.2164H111.273C112.441 52.2164 112.9 51.8414 112.9 50.9246C112.9 50.8829 113.109 50.8829 113.109 50.9246V52.3831C113.109 52.9249 113.151 53.4666 113.151 54.05C113.151 54.1334 112.942 54.1334 112.942 54.05C112.942 53.0082 112.483 52.5498 111.273 52.5498H109.104V56.7171C109.104 57.6756 109.354 57.8839 110.522 57.8839H111.983C113.109 57.8839 113.943 57.0088 114.194 55.5503C114.235 55.5086 114.402 55.5503 114.402 55.6336ZM130.755 47.2157C129.754 47.2157 129.295 47.7575 129.295 48.966V58.509C129.295 58.5924 129.128 58.5924 129.087 58.5507L120.743 48.4659C120.702 48.4242 120.66 48.3409 120.618 48.2992V56.342C120.618 57.5922 121.035 58.0923 121.995 58.0923C122.078 58.0923 122.078 58.3007 121.995 58.3007C121.536 58.3007 121.035 58.259 120.41 58.259C119.825 58.259 119.241 58.3007 118.741 58.3007C118.657 58.3007 118.657 58.0923 118.741 58.0923C119.784 58.0923 120.159 57.5922 120.159 56.342V47.8825C119.617 47.3824 119.2 47.2157 118.741 47.2157C118.657 47.2157 118.657 47.0074 118.741 47.0074C119.158 47.0074 119.617 47.049 119.992 47.049C120.451 47.049 120.827 47.0074 121.035 47.0074C121.327 47.0074 121.327 47.2574 121.87 47.9658L128.836 56.5087V49.0077C128.836 47.7991 128.461 47.2574 127.46 47.2574C127.418 47.2574 127.418 47.049 127.46 47.049C127.96 47.049 128.419 47.0907 129.045 47.0907C129.629 47.0907 130.213 47.049 130.672 47.049C130.839 46.9657 130.839 47.2157 130.755 47.2157ZM139.057 58.0506C139.141 58.0506 139.141 58.259 139.057 58.259C138.473 58.259 137.764 58.2173 136.888 58.2173C136.095 58.2173 135.344 58.259 134.76 58.259C134.677 58.259 134.677 58.0506 134.76 58.0506C136.095 58.0506 136.304 57.8423 136.304 56.8004V48.4242C136.304 47.3824 136.054 47.1741 134.76 47.1741C134.677 47.1741 134.677 46.9657 134.76 46.9657C135.344 46.9657 136.095 47.0074 136.888 47.0074C137.764 47.0074 138.473 46.9657 139.057 46.9657C139.141 46.9657 139.141 47.1741 139.057 47.1741C137.722 47.1741 137.514 47.4241 137.514 48.4659V56.8004C137.514 57.8423 137.722 58.0506 139.057 58.0506ZM143.521 52.6332C143.521 48.7159 146.942 46.7573 149.904 46.7573C153.45 46.7573 155.619 49.5911 155.619 52.4665C155.619 55.842 152.699 58.4674 149.278 58.4674C145.774 58.509 143.521 55.8003 143.521 52.6332ZM154.201 53.0082C154.201 49.6327 152.198 47.1741 149.111 47.1741C146.4 47.1741 144.856 49.0076 144.856 51.9664C144.856 55.3836 146.9 58.0923 149.862 58.0923C152.282 58.0923 154.201 56.3004 154.201 53.0082ZM171.513 58.2586H169.177C168.551 58.2586 166.799 56.0499 164.463 52.4244C164.129 52.5077 163.796 52.5494 163.504 52.5494C163.253 52.5494 162.92 52.5494 162.669 52.5077V56.8C162.669 57.8418 162.878 58.0502 164.213 58.0502C164.296 58.0502 164.296 58.2586 164.213 58.2586C163.629 58.2586 162.92 58.2169 162.085 58.2169C161.293 58.2169 160.542 58.2586 159.958 58.2586C159.874 58.2586 159.874 58.0502 159.958 58.0502C161.293 58.0502 161.501 57.8418 161.501 56.8V48.4238C161.501 47.382 161.293 47.1736 159.958 47.1736C159.874 47.1736 159.874 46.9653 159.958 46.9653C160.542 46.9653 161.293 47.0069 162.085 47.0069C162.711 47.0069 163.671 46.8819 164.255 46.8819C166.257 46.8819 167.3 47.7571 167.3 49.1739C167.3 50.3408 166.549 51.4243 165.464 52.0077C168.468 56.4666 169.97 58.0085 171.472 58.0085C171.597 58.0502 171.597 58.2586 171.513 58.2586ZM163.796 52.1327C165.464 52.1327 166.132 51.5076 166.132 49.799C166.132 47.7987 165.172 47.1736 163.921 47.1736C163.045 47.1736 162.753 47.2987 162.753 48.4655V52.0493C163.045 52.091 163.462 52.1327 163.796 52.1327ZM184.362 56.7171C184.362 57.6756 184.571 57.8839 185.823 57.8839H187.783C189.202 57.8839 189.994 56.9255 190.245 55.4669C190.245 55.4252 190.453 55.4252 190.453 55.5086C190.37 56.1754 190.286 57.2172 190.286 57.9673C190.286 58.1756 190.245 58.259 189.994 58.259H181.651C181.609 58.259 181.609 58.0506 181.651 58.0506C182.986 58.0506 183.194 57.8423 183.194 56.8004V48.4242C183.194 47.3824 182.986 47.1741 181.651 47.1741C181.609 47.1741 181.609 46.9657 181.651 46.9657C182.235 46.9657 182.986 47.0074 183.778 47.0074C184.613 47.0074 185.364 46.9657 185.906 46.9657C185.989 46.9657 185.989 47.1741 185.906 47.1741C184.571 47.1741 184.362 47.4241 184.362 48.4242V56.7171ZM198.505 58.0506C198.588 58.0506 198.588 58.259 198.505 58.259C197.921 58.259 197.211 58.2173 196.335 58.2173C195.543 58.2173 194.792 58.259 194.208 58.259C194.124 58.259 194.124 58.0506 194.208 58.0506C195.543 58.0506 195.751 57.8423 195.751 56.8004V48.4242C195.751 47.3824 195.501 47.1741 194.208 47.1741C194.124 47.1741 194.124 46.9657 194.208 46.9657C194.792 46.9657 195.543 47.0074 196.335 47.0074C197.211 47.0074 197.921 46.9657 198.505 46.9657C198.588 46.9657 198.588 47.1741 198.505 47.1741C197.17 47.1741 196.961 47.4241 196.961 48.4659V56.8004C196.961 57.8423 197.17 58.0506 198.505 58.0506ZM214.19 47.2157C213.44 47.2157 212.814 47.5491 212.355 48.6326L208.517 58.259C208.475 58.3423 208.141 58.3423 208.1 58.259L203.636 48.4659C203.219 47.5491 202.802 47.1741 202.092 47.1741C202.051 47.1741 202.051 46.9657 202.092 46.9657C202.551 46.9657 203.01 47.0074 203.594 47.0074C204.679 47.0074 205.305 46.9657 205.889 46.9657C205.972 46.9657 205.972 47.1741 205.889 47.1741C204.929 47.1741 204.512 47.5074 204.929 48.3826L208.767 56.6338L212.021 48.5076C212.397 47.5908 212.063 47.1741 210.77 47.1741C210.686 47.1741 210.686 46.9657 210.77 46.9657C211.354 46.9657 211.813 47.0074 212.689 47.0074C213.356 47.0074 213.69 46.9657 214.316 46.9657C214.274 46.9657 214.274 47.2157 214.19 47.2157ZM221.992 58.0506C222.075 58.0506 222.075 58.259 221.992 58.259C221.408 58.259 220.698 58.2173 219.822 58.2173C219.03 58.2173 218.279 58.259 217.695 58.259C217.611 58.259 217.611 58.0506 217.695 58.0506C219.03 58.0506 219.238 57.8423 219.238 56.8004V48.4242C219.238 47.3824 218.988 47.1741 217.695 47.1741C217.611 47.1741 217.611 46.9657 217.695 46.9657C218.279 46.9657 219.03 47.0074 219.822 47.0074C220.698 47.0074 221.408 46.9657 221.992 46.9657C222.075 46.9657 222.075 47.1741 221.992 47.1741C220.657 47.1741 220.448 47.4241 220.448 48.4659V56.8004C220.448 57.8423 220.657 58.0506 221.992 58.0506ZM238.303 47.2157C237.302 47.2157 236.843 47.7575 236.843 48.966V58.509C236.843 58.5924 236.676 58.5924 236.634 58.5507L228.291 48.4659C228.249 48.4242 228.207 48.3409 228.166 48.2992V56.342C228.166 57.5922 228.583 58.0923 229.542 58.0923C229.626 58.0923 229.626 58.3007 229.542 58.3007C229.084 58.3007 228.583 58.259 227.957 58.259C227.373 58.259 226.789 58.3007 226.288 58.3007C226.205 58.3007 226.205 58.0923 226.288 58.0923C227.331 58.0923 227.707 57.5922 227.707 56.342V47.8825C227.165 47.3824 226.747 47.2157 226.288 47.2157C226.205 47.2157 226.205 47.0074 226.288 47.0074C226.706 47.0074 227.165 47.049 227.54 47.049C227.999 47.049 228.374 47.0074 228.583 47.0074C228.875 47.0074 228.875 47.2574 229.417 47.9658L236.384 56.5087V49.0077C236.384 47.7991 236.009 47.2574 235.007 47.2574C234.966 47.2574 234.966 47.049 235.007 47.049C235.508 47.049 235.967 47.0907 236.593 47.0907C237.177 47.0907 237.761 47.049 238.22 47.049C238.387 46.9657 238.387 47.2157 238.303 47.2157ZM242.308 52.7582C242.308 49.216 245.228 46.799 249.191 46.799C250.318 46.799 251.486 47.0074 252.195 47.4658C252.404 47.5908 252.404 47.6741 252.404 47.8825L252.612 49.9245C252.612 49.9661 252.404 50.0078 252.404 49.9245C251.861 48.1742 250.443 47.2157 248.399 47.2157C245.312 47.2157 243.643 49.1327 243.643 52.1331C243.643 55.717 245.979 58.2173 249.191 58.2173C250.944 58.2173 251.611 57.8839 251.611 56.0503C251.611 54.3001 251.486 54.1334 249.567 54.1334C249.442 54.1334 249.442 53.8417 249.567 53.8417C251.11 53.9667 252.237 53.9667 253.655 53.8834C253.739 53.8834 253.78 54.1334 253.655 54.1334C252.821 54.1334 252.737 54.3418 252.737 56.2587C252.737 57.4672 252.863 57.5506 252.863 57.8423C252.863 57.9673 252.821 58.009 252.654 58.0506C251.444 58.3423 250.026 58.5507 248.816 58.5507C244.686 58.509 242.308 55.9253 242.308 52.7582Z" fill="#D15E14"/>
<path id="Vector_3" fill-rule="evenodd" clip-rule="evenodd" d="M31.1342 23.0034C31.1342 23.0034 29.2152 21.5866 28.9648 21.5449C28.8397 21.5449 28.8814 21.5866 28.8814 21.6282C28.9231 22.1283 28.9231 22.17 28.8397 23.0034C28.8397 23.1285 28.8814 23.2535 28.9648 23.3368C29.0066 23.4202 29.09 23.5035 29.1734 23.5452C29.6323 23.9202 30.2998 24.4203 30.7587 24.7954L30.425 23.8786C30.3415 23.6285 29.8826 22.7534 29.8826 22.7534C29.8409 22.6701 29.8409 22.6701 29.8826 22.6284C29.9243 22.6284 29.9661 22.6284 30.0912 22.7534C30.3832 23.0868 30.717 23.5035 31.009 23.8369L31.7182 24.7537C31.6348 23.4202 31.5096 23.3368 31.1342 23.0034ZM30.0078 21.1698C29.674 20.9198 29.2569 20.6281 28.8814 20.3781C28.7563 20.2947 28.7145 20.2947 28.7145 20.2947C28.9648 20.7114 29.4237 20.8781 29.7575 21.1698L30.425 21.8783C29.9661 21.5866 29.382 21.2115 28.9231 20.9198C28.8814 20.8781 28.798 20.8365 28.7145 20.7948C28.5894 20.7114 28.506 20.6281 28.506 20.5864C28.1722 20.128 28.0471 20.003 27.5464 19.6279L27.5047 19.5863C27.7133 19.6279 28.6728 20.0863 29.5489 20.5864C29.9243 20.7948 30.1747 20.9615 30.8838 21.9199L30.0078 21.1698ZM25.544 19.5446C25.5023 19.5446 25.4606 19.5446 25.4606 19.5863C25.544 19.9197 25.544 19.9197 25.4189 20.5031C25.4189 20.5864 25.4606 20.6698 25.5023 20.7531C25.544 20.8365 25.5857 20.8781 25.6274 20.8781C26.0029 21.1698 26.5452 21.5449 26.9207 21.7949L26.6287 21.0865C26.5452 20.9198 26.1698 20.2947 26.1698 20.2947C26.1281 20.253 26.1698 20.253 26.1698 20.2114C26.1698 20.2114 26.2115 20.2114 26.3366 20.2947C26.5869 20.5031 26.879 20.8365 27.1293 21.0865L27.755 21.7949C27.7968 20.7531 27.7133 20.7114 27.3379 20.4614C27.3379 20.5031 25.7109 19.5863 25.544 19.5446ZM22.9992 19.5446C23.041 19.5446 23.0827 19.5446 23.1244 19.5863C23.625 20.0447 23.6667 20.0863 24.1673 20.5031C24.4176 20.7531 24.4176 20.7531 23.5833 21.8366L23.3747 21.1282C23.2913 20.8781 23.2078 20.5864 23.1244 20.3364C23.0827 20.2114 22.9992 20.2114 22.9992 20.2947C22.8741 20.5447 22.8741 20.8365 22.8324 21.1282L22.6655 21.8366C22.4152 21.5449 22.1232 21.1698 21.8729 20.9198C21.8312 20.8781 21.8312 20.8365 21.8312 20.7948C21.8312 20.7114 21.8729 20.6281 21.9146 20.5864C22.2066 20.253 22.5821 19.9613 22.8741 19.6279C22.8741 19.5863 22.9158 19.5446 22.9992 19.5446ZM23.041 24.2953C22.8741 24.2953 22.8324 24.337 22.7489 24.4203C22.2066 25.0037 21.5808 25.5455 21.0802 26.1289C21.0385 26.1706 20.9134 26.3373 20.9134 26.5456C20.9134 26.6706 20.9551 26.7123 20.9968 26.7957C21.3723 27.2541 21.9146 27.8375 22.3318 28.2959L22.5821 27.1707L22.9158 25.7538C22.9575 25.6705 23.0827 25.6288 23.1661 25.8789C23.2495 26.2956 23.4164 26.7957 23.4999 27.2124L23.7919 28.3375C25.3354 26.5873 25.3354 26.5873 25.0017 26.1706L23.2495 24.4203C23.1661 24.2953 23.0827 24.2953 23.041 24.2953ZM17.7011 24.4203C17.6594 24.337 17.6177 24.2953 17.5343 24.2953C17.4091 24.2953 17.3257 24.337 17.2005 24.4203C14.9478 26.2539 14.9478 26.2539 14.9061 26.5456C14.8643 26.6706 14.9061 26.7123 14.9061 26.7957C15.1146 27.2541 15.4067 27.8375 15.657 28.2959L16.1576 27.1707C16.8251 25.7955 16.8668 25.7538 16.9085 25.7122C16.9502 25.6705 17.1171 25.5871 17.0754 25.8372C17.0336 26.2539 17.0336 26.754 16.9919 27.1707V28.2959C18.9109 26.5039 18.9109 26.5039 18.7441 26.1289C18.2435 25.4205 18.2017 25.3371 17.7011 24.4203ZM13.2374 24.2953C13.1956 24.2953 13.1539 24.2953 12.987 24.4203C12.1527 25.1287 11.1515 26.0872 10.9012 26.5456C10.8595 26.6706 10.8177 26.7123 10.8177 26.7957C10.776 27.2541 10.7343 27.8375 10.6926 28.2959L11.3183 27.1707C12.1944 25.6705 12.3196 25.6705 12.3613 25.6705C12.3613 25.7122 12.3613 25.7122 12.3196 25.8372C12.1527 26.2122 11.9858 26.754 11.819 27.1707L11.4852 28.2959C11.9858 27.7541 12.5699 27.2957 13.0705 26.7123C13.1956 26.5873 13.3208 26.3789 13.2791 26.1289C13.1539 25.3371 13.1956 25.0454 13.2374 24.3786C13.2791 24.337 13.2374 24.2953 13.2374 24.2953ZM27.0876 22.9618C25.2937 21.5449 25.2937 21.5449 25.1686 21.5032C25.0434 21.5032 25.0017 21.5449 24.96 21.5866C24.6679 22.0866 24.2508 22.5034 23.9587 23.0034C23.9587 23.0451 23.917 23.1285 23.917 23.2951C23.9587 23.3785 24.0005 23.4618 24.0422 23.5035C24.4176 23.8786 24.96 24.3786 25.3771 24.7537L25.4189 23.8369C25.4189 23.4618 25.2937 23.0451 25.4189 22.6701C25.4606 22.5867 25.544 22.545 25.6274 22.7534L26.1698 23.8369L26.5869 24.7537C27.463 23.2951 27.463 23.2951 27.0876 22.9618ZM21.0802 21.5866C21.0385 21.5449 20.9968 21.5032 20.9134 21.5032C20.7882 21.5032 20.7465 21.5449 20.6631 21.5866C18.8275 23.0868 18.8275 23.0868 18.7858 23.2535C18.7858 23.3368 18.7858 23.4202 18.8275 23.4618C19.0361 23.8369 19.3698 24.337 19.6201 24.712L20.0373 23.7952C20.5379 22.6701 20.5379 22.6701 20.5796 22.6284C20.6213 22.5867 20.7465 22.545 20.7465 22.7117C20.7465 23.0451 20.7882 23.4618 20.7882 23.7952L20.8717 24.712C22.4152 23.2535 22.4152 23.2535 22.1649 22.9201C21.6226 22.3783 21.5808 22.3367 21.0802 21.5866ZM18.2852 20.7531C18.3686 20.6281 18.452 20.5447 20.2042 19.5863C20.2876 19.5446 20.3293 19.5446 20.4128 19.5446C20.4128 19.5446 20.4545 19.5446 20.4545 19.5863C20.4545 19.878 20.4545 20.0447 20.6213 20.5031C20.6631 20.7114 20.6631 20.7114 19.203 21.8366L19.4115 21.1282C19.495 20.8781 19.6201 20.5864 19.7453 20.3364C19.787 20.2947 19.787 20.253 19.7453 20.253C19.7036 20.253 19.6618 20.2114 18.8692 21.1282L18.2852 21.8366C18.2435 21.5449 18.2017 21.1698 18.2017 20.9198C18.2435 20.8781 18.2435 20.8365 18.2852 20.7531ZM15.949 20.7531C15.8656 20.8365 15.8238 20.8781 15.7821 20.8781C15.5318 21.1282 15.2815 21.5032 15.0729 21.7949L15.9073 21.0865C15.9073 21.0865 17.0754 20.2114 17.2005 20.2114C17.2005 20.253 17.1588 20.253 17.1171 20.2947C16.8251 20.5031 16.4913 20.8365 16.241 21.0865L15.6152 21.7949C16.1159 21.4615 16.6999 21.1698 17.2005 20.7948C17.3257 20.7114 17.4925 20.5864 17.576 20.4614C17.7846 20.0863 17.9931 19.8363 18.3686 19.5446L18.4103 19.5029C18.3686 19.5029 18.3269 19.5029 18.2435 19.5446C17.8263 19.753 16.4079 20.4197 15.949 20.7531ZM31.009 21.5866C31.2176 21.6699 32.0519 22.295 32.8029 23.0034C33.4286 23.6285 33.8458 24.337 34.1378 24.7954L33.3869 23.8786C33.0949 23.5452 32.6777 23.1285 32.3857 22.7951C32.2605 22.6701 32.2605 22.6701 32.2188 22.6701C32.2188 22.7117 32.2188 22.7117 32.3022 22.7951C32.3022 22.7951 33.0532 23.6702 33.22 23.9202L33.8458 24.837C33.4703 24.462 32.928 23.9619 32.5108 23.5869L32.3022 23.3785C32.1771 23.2535 32.0937 23.1285 32.0937 23.0868C31.7182 22.42 31.593 22.2533 31.0924 21.6699C31.0507 21.5866 31.0507 21.5866 31.009 21.5866ZM14.5306 23.2951C14.614 23.1701 14.7392 22.9201 16.8251 21.6282C16.9085 21.5866 16.9919 21.5449 17.0754 21.5449C17.0754 21.5449 17.1588 21.5449 17.1588 21.6282C17.1588 22.2117 17.1588 22.3783 17.3257 23.0034C17.3674 23.2535 17.1588 23.4202 17.1171 23.4618C16.6165 23.9619 16.0324 24.337 15.4484 24.7537L15.7404 23.8369C15.8656 23.5035 16.0324 23.0868 16.1993 22.7534C16.241 22.6701 16.241 22.6284 16.1993 22.6284C16.1159 22.6284 16.0741 22.6284 15.1146 23.8369L14.4472 24.7537C14.4054 24.3786 14.4054 23.8786 14.4472 23.5035C14.4472 23.4202 14.4472 23.3785 14.5306 23.2951ZM12.3613 23.7952L11.6104 24.712C11.819 24.337 12.1527 23.8369 12.403 23.4618C12.4447 23.4202 12.4864 23.3368 12.5699 23.2535C12.9453 22.7951 13.6962 22.17 14.5723 21.5866L14.7392 21.5032C14.7392 21.5449 14.7392 21.5449 14.6975 21.5866C14.322 22.045 14.0717 22.3367 13.7797 22.9618C13.6962 23.1285 13.5711 23.2535 13.4042 23.4202C12.9453 23.8786 12.403 24.2953 11.9441 24.712L12.5699 23.7952C12.8202 23.4618 13.1539 23.0451 13.4459 22.7117C13.5294 22.6284 13.5294 22.5867 13.5711 22.5867C13.4459 22.6284 12.403 23.7952 12.3613 23.7952ZM18.0766 40.4226C18.452 38.5473 18.452 38.5474 18.4938 38.464C18.5355 38.4223 18.7023 38.2973 18.7858 38.6307C18.9109 39.1724 19.0361 39.8809 19.1612 40.4226L19.495 41.7977C21.2054 39.8392 21.2054 39.8392 21.2054 39.7975C21.2471 39.7142 21.414 39.3808 21.122 39.0058C18.8692 36.422 18.8692 36.422 18.7023 36.3804C18.5355 36.3804 18.4103 36.422 18.2852 36.5471C15.9907 39.1308 15.9907 39.1724 16.0741 39.5475C16.1159 39.7142 16.1576 39.7975 16.1993 39.8809C16.6999 40.4643 17.3257 41.2144 17.8263 41.756L18.0766 40.4226ZM26.1281 40.4226C26.5452 38.5057 26.5452 38.5057 26.5869 38.464C26.6287 38.3807 26.7955 38.339 26.879 38.6307C27.0041 39.1724 27.1293 39.8809 27.2544 40.4226L27.5047 41.7977C29.5072 39.5475 29.5072 39.5475 29.1317 39.0058C27.0458 36.422 26.9207 36.422 26.7121 36.3804C26.5452 36.3804 26.4201 36.422 26.2949 36.5471C23.9587 39.2558 23.9587 39.2558 24.0422 39.5475C24.0839 39.7142 24.1256 39.7975 24.2091 39.8809C24.7097 40.4643 25.3771 41.2144 25.836 41.756L26.1281 40.4226ZM13.4877 27.7541C13.5711 27.7541 13.6128 27.7958 13.6545 27.8791C14.1551 29.0043 14.1969 29.0876 14.6557 29.9211C14.7809 30.2128 14.6557 30.4628 14.5723 30.5879C14.1134 31.213 13.5294 31.713 12.987 32.2548L12.8619 32.3798V31.1296C12.9036 30.6712 12.9036 30.0461 12.9453 29.5877C12.9453 29.296 12.8202 29.421 12.8202 29.421C12.695 29.5044 12.3613 30.3795 12.0693 31.1296L11.6521 32.2548L11.6104 32.3798L11.5687 32.2548C11.3601 31.7964 11.1515 31.1296 10.9846 30.6712C10.9846 30.5879 10.9429 30.5045 10.9846 30.3795C11.0263 30.1711 11.068 29.8794 13.1539 27.8791C13.2791 27.7958 13.3625 27.7541 13.4877 27.7541ZM32.1354 27.9625C31.8434 28.6709 31.4262 29.3377 31.1342 30.0878C31.1342 30.1295 31.0924 30.2962 31.1759 30.5045C31.2176 30.6295 31.301 30.7129 31.3427 30.7962C31.7599 31.2546 32.344 31.838 32.7611 32.2964L32.928 32.5048V32.2964L32.8863 31.2546C32.8446 30.6712 32.5943 30.1295 32.8029 29.5877C32.8446 29.5044 32.928 29.4627 33.0532 29.7544C33.2617 30.2128 33.5121 30.8379 33.7206 31.2963L34.1378 32.3381L34.2212 32.5465L34.3047 32.3381C34.9722 30.6712 35.0139 30.5462 34.6384 30.0461C34.4298 29.8378 32.7611 27.9208 32.4274 27.8791C32.2188 27.8375 32.1354 27.8791 32.1354 27.9625ZM11.5687 36.297C11.4018 36.297 11.3183 36.3387 11.2349 36.4637C9.56621 38.8391 9.60793 39.2558 9.64965 39.4642C9.64965 39.6308 9.69137 39.7142 9.73308 39.7975C10.0668 40.3809 10.5674 41.1311 10.9429 41.6727L11.068 40.2976C11.1515 39.4642 11.3183 38.4223 11.4018 38.2973C11.4018 38.2973 11.5269 38.1306 11.6104 38.5057C11.6938 39.0474 11.819 39.7559 11.9441 40.2976L12.2361 41.6727C12.695 41.006 13.2374 40.4226 13.6128 39.6725C13.6962 39.5475 13.7797 39.2558 13.5294 38.8807C12.9453 38.0473 12.403 37.2138 11.819 36.3804C11.6938 36.3387 11.6104 36.297 11.5687 36.297ZM33.4286 40.4226L33.1366 41.7977C32.7611 41.2144 32.2188 40.4643 31.8434 39.9226C31.8016 39.8392 31.7599 39.7559 31.7182 39.5892C31.6765 39.2975 31.8016 39.0891 31.8434 39.0058C32.344 38.1723 33.0114 37.3805 33.5538 36.5471C33.6372 36.422 33.7206 36.3804 33.8875 36.3804C34.3047 36.4637 35.6814 39.0058 35.7231 39.0058C35.9734 39.5892 35.9317 39.6725 34.4716 41.7977L34.3464 40.4226C34.263 39.8809 34.1795 39.1724 34.0961 38.6307C34.0544 38.339 33.9292 38.3807 33.8875 38.4223C33.3452 39.0474 33.5955 39.7559 33.4286 40.4226ZM33.6372 25.9205C33.8875 26.2956 34.2212 26.8373 34.4716 27.2541L35.0973 28.3792C35.0139 26.754 34.847 26.5873 34.555 26.2122C34.263 25.9205 32.8446 24.4203 32.5943 24.3786C32.5108 24.3786 32.5108 24.3786 32.5108 24.5037C32.636 25.1704 32.5943 25.2121 32.5525 26.2122C32.5525 26.3789 32.5943 26.5456 32.6777 26.629C32.7611 26.754 32.8029 26.7957 32.8863 26.879L34.3881 28.3792L34.0544 27.2541C33.9709 26.9623 33.5121 25.8789 33.5121 25.8789C33.4703 25.7955 33.4703 25.7538 33.5121 25.7538C33.5121 25.7538 33.5538 25.7538 33.6372 25.9205ZM37.9341 36.5471C37.9758 36.422 37.9758 36.3804 38.0593 36.3804C38.2678 36.5471 38.5599 38.1723 38.6433 39.0058C38.685 39.6308 38.6433 40.1726 38.2261 41.7977L38.2678 40.4226C38.2678 39.8809 38.2261 39.1724 38.2261 38.6307C38.2261 38.464 38.1844 38.4223 38.1844 38.3807C38.1427 38.4223 38.1427 38.4223 38.1427 38.5473C38.1427 38.5473 38.0175 40.0059 37.9758 40.3809L37.7672 41.756C37.6421 41.1727 37.4335 40.4226 37.2666 39.8809C37.2249 39.7975 37.2249 39.7142 37.2249 39.5475C37.2249 39.4225 37.2249 39.2141 37.3083 38.9641C37.7255 37.6722 37.7672 37.5055 37.9341 36.5471ZM12.8202 34.7551C12.8202 34.3801 12.8202 34.3801 14.7809 32.2548L15.0729 31.9631C15.1981 31.838 15.3232 31.7964 15.4484 31.7964C15.6152 31.838 15.6152 31.838 15.949 32.2548C16.4079 32.8382 16.9919 33.63 17.4508 34.2134C17.6594 34.5468 17.5343 34.8385 17.4925 34.9635C17.0336 35.7136 16.3662 36.2554 15.7821 36.9221L15.5735 35.5469C15.5318 35.0468 15.4067 34.3801 15.3649 33.8383C15.3232 33.505 15.1564 33.63 15.1146 33.6716C15.0729 33.7133 15.0312 33.7967 14.5723 35.5469L14.2386 36.9221C13.8631 36.3804 13.3208 35.6303 12.9453 35.0468C12.9036 35.0052 12.8619 34.9218 12.8202 34.7551ZM30.5501 33.9634C30.4667 33.6716 30.2998 33.7133 30.2581 33.7967C29.8826 34.3801 30.0912 35.0468 30.0078 35.6719L29.7992 37.0471C29.2986 36.4637 28.6728 35.7553 28.1722 35.1719C28.1305 35.0885 28.0471 35.0052 28.0053 34.8802C27.9636 34.6301 28.0471 34.4218 28.0471 34.4218C28.5477 33.6716 29.1317 33.0049 29.674 32.2964L29.8409 32.0464C29.9243 31.9214 30.0078 31.8797 30.1747 31.8797C30.3415 31.9214 30.3415 31.9214 30.717 32.2548C31.8851 33.5466 31.9685 33.5883 32.5525 34.2967C32.928 34.7968 32.928 34.7968 31.3427 37.0055L31.009 35.6303C30.8839 35.1719 30.717 34.4634 30.5501 33.9634ZM9.85824 31.7964C9.94167 31.838 9.94167 31.838 10.0668 32.2548C10.2754 32.8382 10.5674 33.63 10.8177 34.2134C10.9012 34.4634 10.9012 34.7135 10.776 34.9635C10.4423 35.6719 9.89995 36.2554 9.5245 36.9221L9.48278 35.5469C9.48278 35.0468 9.48278 34.3801 9.5245 33.8383C9.5245 33.6716 9.5245 33.63 9.48278 33.63C9.44106 33.63 9.31591 33.63 8.89873 35.5469L8.64843 36.9221C8.48156 36.3804 8.27297 35.6303 8.14782 35.0468V34.7551C8.18954 34.4634 8.18954 34.2134 9.44106 32.2548L9.64965 31.9631C9.69137 31.838 9.7748 31.7964 9.85824 31.7964ZM36.182 33.755C36.1403 33.755 36.1403 33.7967 36.1403 33.9217C36.1403 34.5051 36.182 35.0885 36.182 35.6719L36.1403 37.0471C35.8065 36.4637 35.3059 35.7136 34.9304 35.1719C34.8887 35.0885 34.847 35.0052 34.8053 34.8802C34.7636 34.7968 34.7636 34.5468 34.847 34.3384C35.4311 33.0049 35.4311 33.0049 35.6396 32.2964L35.6814 32.0464C35.7231 31.9214 35.7648 31.8797 35.8482 31.8797C35.9734 31.9214 35.9734 31.9214 36.2237 32.2548C37.0163 33.5466 37.058 33.5883 37.3918 34.2967C37.6004 34.7968 37.6838 34.9218 37.0163 37.0055L36.766 35.6303C36.6409 35.1302 36.474 34.4218 36.3488 33.9217C36.2654 33.7967 36.2237 33.755 36.182 33.755ZM30.8004 26.2122C31.2176 26.629 31.2176 26.6706 30.3415 28.3792L29.7992 27.2541L29.1317 25.9205C29.0066 25.6705 28.9231 25.7538 28.8814 25.7955C28.6311 26.2956 28.9648 26.754 28.9648 27.2541L29.0066 28.3792C28.506 27.9208 27.8802 27.3374 27.3796 26.879C27.3379 26.8373 27.2544 26.754 27.2127 26.629C27.1293 26.4623 27.171 26.3373 27.2127 26.2956C27.5047 25.6705 27.9219 25.1287 28.2139 24.5037C28.2556 24.4203 28.2974 24.3786 28.4642 24.3786C28.6311 24.3786 28.7145 24.3786 30.8004 26.2122ZM20.2876 35.1719C20.2459 35.0885 20.1625 35.0052 20.1625 34.8802C20.1207 34.5884 20.1207 34.5884 22.2066 32.2964L22.4152 32.0464C22.5404 31.9214 22.6238 31.8797 22.8324 31.8797C23.041 31.9214 23.041 31.9214 23.3747 32.2548C24.0005 32.9215 24.6262 33.63 25.252 34.2967C25.6274 34.7551 25.6274 34.7551 23.625 37.0055L23.333 35.6303C23.2078 35.1302 23.0827 34.4634 22.9575 33.9217C22.8741 33.5883 22.7072 33.6716 22.6238 33.7967C22.5821 33.8383 22.5821 33.8383 22.2066 35.6303L21.9146 37.0055C21.4557 36.4637 20.7882 35.7136 20.2876 35.1719ZM25.9612 32.4631L25.7526 32.2548C25.3354 31.7964 24.7514 31.213 24.2925 30.7546C24.2508 30.6712 24.1673 30.5879 24.1256 30.4628C24.0839 30.2128 24.2091 30.0461 24.2508 29.9628C24.7514 29.2543 25.4189 28.6292 25.9612 27.9208C26.0446 27.8375 26.1281 27.7541 26.2949 27.7958C26.5035 27.8375 26.5035 27.8375 28.6728 29.9628C29.0483 30.4212 29.0483 30.4212 27.6299 32.2548L27.463 32.4631L27.4213 32.2548L27.171 31.213C27.0458 30.7546 26.8373 30.1295 26.6704 29.6711C26.5869 29.3794 26.4201 29.4627 26.3784 29.546C26.1281 30.0878 26.2115 30.6712 26.1281 31.213L25.9612 32.2548V32.4631ZM19.787 27.8791C20.4128 28.5459 20.9551 29.2543 21.5391 29.9211C21.8312 30.3378 21.8312 30.3378 19.9956 32.2548L19.8704 32.3798V32.2548L19.7036 31.1296C19.6201 30.6712 19.5367 30.0461 19.495 29.5877C19.4533 29.296 19.2864 29.3794 19.203 29.4627C19.1612 29.5044 19.1612 29.5461 18.6606 31.1296L18.3269 32.2548L18.2852 32.3798L18.2017 32.2548C17.8263 31.7964 17.3257 31.1296 16.9919 30.6712C16.9502 30.5879 16.9085 30.5045 16.9085 30.3795C16.9085 30.0878 16.9085 30.0878 19.203 27.8791C19.2864 27.7958 19.4115 27.7125 19.5784 27.7541C19.6201 27.7541 19.7453 27.7958 19.787 27.8791ZM7.23003 40.3393C7.23003 40.3393 7.23003 38.4223 7.35519 38.2973C7.35519 38.339 7.3969 38.3807 7.3969 38.5473C7.43862 39.0891 7.48034 39.7975 7.52206 40.3393L7.73064 41.7143C7.89751 41.006 8.14782 40.3393 8.27297 39.6308C8.27297 39.5475 8.31469 39.2975 8.23125 38.9641C7.81408 37.7972 7.73064 37.2555 7.60549 36.4637C7.60549 36.3804 7.56377 36.3387 7.52206 36.3387C7.48034 36.3387 7.43862 36.3804 7.3969 36.5054C6.93801 38.1306 6.89629 39.1724 6.93801 39.5058C6.93801 39.6725 6.93801 39.7559 6.97973 39.8392C7.06316 40.4226 7.23003 41.1727 7.35519 41.7143L7.23003 40.3393ZM35.7648 27.8375C35.7231 27.8375 35.7231 27.8791 35.7231 27.9625C35.8899 28.7543 35.8899 28.7959 35.8899 30.0044C35.8899 30.0461 35.8899 30.2545 35.9734 30.5045C36.0151 30.6295 36.0568 30.7129 36.0985 30.7962C36.3906 31.2546 36.766 31.838 37.0163 32.2964L37.1415 32.5048L37.0998 32.2964L36.8912 31.2546C36.8077 30.9212 36.4323 29.6711 36.4323 29.6711C36.3906 29.5461 36.3906 29.546 36.4323 29.5044C36.474 29.546 36.474 29.546 36.5574 29.7127C36.766 30.1711 36.9746 30.7962 37.1832 31.2546L37.5169 32.2964L37.5586 32.5048V32.2964C37.3918 30.8379 37.1832 30.3795 37.0163 30.0044C36.7243 29.2543 35.9734 27.9625 35.7648 27.8375ZM8.43984 31.1296C8.43984 31.1296 9.0656 29.4627 9.19076 29.3794C9.19076 29.421 9.19076 29.421 9.14904 29.5877C9.02389 30.0461 8.85702 30.6712 8.73186 31.1296L8.48156 32.2548L8.43984 32.3798L8.52328 32.2548C8.85702 31.6714 9.27419 31.1713 9.56621 30.5879C9.73308 30.2545 9.7748 30.0461 9.7748 29.9211C9.73308 28.921 9.81652 28.4626 9.94167 27.8791V27.7541C9.89995 27.7541 9.85824 27.7541 9.7748 27.8791C9.10732 28.8376 8.56499 29.7961 8.35641 30.3795C8.31469 30.5045 8.27297 30.5879 8.27297 30.6712C8.18954 31.1296 8.1061 31.7964 8.02267 32.2548V32.3798L8.06438 32.2548L8.43984 31.1296ZM33.0114 52.7993C33.1783 52.4242 33.4286 51.9242 33.5955 51.5074C33.6372 51.3824 33.6372 51.3407 33.6372 51.3407C33.5955 51.3407 33.5955 51.3407 33.5121 51.4241C33.1783 51.8825 32.928 52.3409 32.5943 52.7576L31.8851 53.7161C31.8851 53.341 31.8851 52.7993 31.8434 52.4242C31.8434 52.3826 31.8434 52.2992 31.8851 52.2159C31.9268 52.1325 31.9685 51.9658 32.1771 51.7991C33.2617 50.799 33.4286 50.674 34.1378 49.9239C34.263 49.7989 34.3047 49.7572 34.3881 49.7989C34.5967 49.8822 34.4298 51.4658 34.3464 51.8408C34.2212 52.2159 34.2212 52.2992 32.5525 53.7578L33.0114 52.7993ZM13.7797 55.758C13.6962 55.6747 12.7367 54.7162 12.695 54.5912C12.7367 54.5912 12.7367 54.6329 12.8619 54.7579C13.1539 55.0913 13.6128 55.4663 13.9048 55.758L14.7809 56.4665C14.322 55.9664 14.03 55.383 13.4877 54.9663C12.5699 54.2162 12.1944 53.8411 11.7355 53.3827C11.6938 53.341 11.6521 53.2994 11.6104 53.2994C11.6104 53.341 11.6104 53.341 11.6521 53.4244C11.819 53.7161 12.3196 54.5079 13.1122 55.2996C13.1956 55.383 13.2791 55.4247 13.3208 55.4663C13.6962 55.7997 14.1969 56.1748 14.5723 56.4665L13.7797 55.758ZM33.4703 53.4244C33.5538 53.341 33.6372 53.2994 33.6372 53.2994C33.7206 53.4244 33.0949 54.3412 32.636 54.9663C32.344 55.2996 31.9685 55.633 30.8004 56.4665L31.593 55.758C31.8851 55.4663 32.2605 55.0496 32.5108 54.7579C32.5943 54.6329 32.5943 54.6329 32.5943 54.5912C32.5525 54.5912 32.5525 54.5912 32.4691 54.7162C32.4691 54.7162 31.593 55.5497 31.3845 55.758L30.5084 56.4665C30.717 56.1748 31.009 55.7581 31.1759 55.4663C31.2176 55.4247 31.2176 55.383 31.301 55.2996C31.4262 55.133 31.593 55.0079 31.6348 54.9663C32.6777 54.1745 32.8029 54.0495 33.4703 53.4244ZM35.9734 46.2983L36.1403 45.0482C36.182 44.5481 36.2237 43.8813 36.2654 43.3813C36.2654 43.2146 36.2654 43.1729 36.2237 43.1312C36.182 43.1312 36.182 43.1312 35.5979 45.0065L35.139 46.2567C34.9722 45.7149 34.6801 45.0065 34.4716 44.5064C34.4298 44.4231 34.4298 44.3397 34.4298 44.2147C34.4298 44.1314 34.4716 43.8813 34.5967 43.673C35.5562 42.3811 35.6396 42.2561 36.182 41.2978C36.2654 41.1727 36.3071 41.1311 36.4323 41.1311C36.766 41.2144 37.2249 43.673 37.2249 43.673C37.2666 44.2147 37.3083 44.3397 35.9734 46.2983ZM37.0998 45.8399C37.1832 45.7149 37.2249 45.6733 37.2666 45.6733C37.3918 45.7983 37.1832 47.2985 37.0163 48.0069C36.8912 48.382 36.8077 48.757 35.7648 50.2989L36.2237 49.1738C36.3906 48.7154 36.5991 48.1319 36.7243 47.6735C36.766 47.5069 36.766 47.5069 36.766 47.4652C36.7243 47.4652 36.7243 47.4652 36.6409 47.6319C36.6409 47.6319 36.0985 48.8821 35.9317 49.1738L35.3476 50.2989C35.3893 49.8405 35.4311 49.2154 35.4311 48.757C35.4311 48.6737 35.4311 48.632 35.4728 48.507C35.5145 48.382 35.5562 48.2153 35.6814 48.0486C36.5157 46.8401 36.5991 46.7151 37.0998 45.8399ZM9.10732 43.0479C9.14904 43.0896 9.19076 43.0896 9.23247 43.2562C9.35763 43.7563 9.56621 44.4231 9.69137 44.9231L10.1503 46.1733C10.3171 45.5482 10.6509 44.9648 10.776 44.3397C10.8595 43.9647 10.6926 43.7146 10.6092 43.5896C9.94167 42.6728 9.85824 42.5478 9.10732 41.2144C9.02389 41.0894 8.98217 41.0477 8.94045 41.0477C8.85702 41.0477 8.8153 41.0894 8.73186 41.2144C8.48156 42.0061 8.06438 43.4646 8.18954 44.1314C8.23125 44.2564 8.27297 44.3397 8.31469 44.4231C8.60671 44.9648 9.02389 45.6733 9.35763 46.1733L9.19076 44.9231C9.10732 44.2981 8.98217 43.1729 9.10732 43.0479ZM15.3649 54.7579C15.2398 54.5912 15.1981 54.5912 15.1564 54.5912C15.0729 54.7162 15.7821 55.758 15.7821 55.758L16.3244 56.4665C15.8656 56.1748 15.2398 55.7581 14.8226 55.4663C14.7809 55.4247 14.6975 55.383 14.614 55.2996C14.2386 54.8829 14.1969 53.9661 14.2386 53.4244C14.2386 53.341 14.2803 53.2994 14.4054 53.2994C14.4472 53.2994 14.5306 53.2994 14.614 53.3827C15.3232 53.8828 15.9907 54.4245 16.6999 54.9663C16.7833 55.0496 16.9502 55.1746 16.9919 55.4247V56.4665L16.2827 55.758C16.0324 55.4663 15.657 55.0496 15.3649 54.7579ZM9.19076 49.0904C9.19076 49.0904 8.60671 47.5069 8.64843 47.3818C8.69015 47.4235 8.69015 47.4235 8.77358 47.5902C8.94045 48.0486 9.23247 48.632 9.44106 49.0904L10.0251 50.2156C9.94167 49.6322 9.94167 49.0487 9.81652 48.507C9.81652 48.4237 9.73308 48.2153 9.56621 47.9236C8.85702 46.9234 8.60671 46.4234 8.23125 45.7149C8.18954 45.6316 8.14782 45.6316 8.14782 45.5899H8.1061C8.1061 45.6316 8.06438 45.6316 8.1061 45.7566C8.23125 47.0485 8.48156 47.9236 8.69015 48.382C8.73186 48.507 8.77358 48.5903 8.8153 48.632C9.0656 49.0904 9.44106 49.7155 9.73308 50.1739L9.19076 49.0904ZM11.7355 51.5491C11.9858 51.9242 12.3613 52.4242 12.6116 52.841L13.3208 53.7994C13.2791 53.4244 13.2374 52.8826 13.2374 52.5076V52.4242C13.1956 52.1742 13.0288 52.0075 12.9036 51.8408C12.111 51.0907 12.0693 51.049 11.0263 49.9655C10.9429 49.8822 10.9012 49.8405 10.8177 49.8405C10.7343 49.8405 10.6926 49.8822 10.6926 49.9655C10.6926 50.3406 10.776 51.6741 11.1932 52.2575C11.2766 52.3826 11.3183 52.4242 11.3601 52.4659C11.7355 52.8826 12.2779 53.3827 12.695 53.7578L12.1527 52.7993C12.1527 52.7993 11.4852 51.5074 11.4852 51.3407C11.5687 51.3824 11.6104 51.3824 11.7355 51.5491ZM29.1734 55.758L28.6728 56.4665C30.4667 55.3413 30.5084 55.2996 30.5918 54.9663C30.5918 54.9663 30.717 53.3827 30.425 53.2994C30.3415 53.2994 30.2581 53.341 30.1329 53.4244C29.4655 53.9661 28.798 54.4245 28.1305 54.9663C28.0888 55.0079 27.9219 55.133 27.8802 55.2996C27.8385 55.383 27.8385 55.4247 27.8385 55.4663C27.8802 55.7581 27.9219 56.1748 27.9636 56.4665L28.6311 55.758C28.9231 55.4247 29.2152 55.0496 29.5072 54.7162C29.5906 54.5912 29.6323 54.5912 29.674 54.5912C29.674 54.6329 29.7158 54.6329 29.674 54.7579C29.5489 55.0496 29.3403 55.4663 29.1734 55.758ZM25.0434 54.7579V55.758L25.0017 56.4665C25.4606 56.0914 25.9195 55.7997 26.3366 55.383C26.4201 55.2996 26.5452 55.133 26.4618 54.9246C26.2115 54.4245 25.544 53.2994 25.252 53.2577C25.0851 53.2577 25.0017 53.2994 24.9182 53.3827C23.2078 55.0079 23.2078 55.0079 23.2078 55.258C23.2078 55.3413 23.2495 55.383 23.2913 55.4247C23.5416 55.7164 23.8753 56.1331 24.0839 56.4248L24.3759 55.7164C24.8348 54.6329 24.8348 54.6329 24.8765 54.5912C24.9182 54.6329 25.0434 54.5495 25.0434 54.7579ZM22.3735 56.1748C22.6238 56.2164 23.333 57.1332 23.5416 57.425C23.5833 57.4666 23.625 57.5916 23.4999 57.7583C23.2913 58.0084 22.9992 58.2167 22.7907 58.4668L22.6655 58.0084C22.6238 57.8 22.5404 57.5083 22.4569 57.2999C22.4152 57.1749 22.3318 57.1749 22.29 57.2583C22.2483 57.2999 22.2066 58.0084 22.2066 58.0084V58.4668C21.9563 58.2584 21.6226 58.0084 21.414 57.8L21.2888 57.675C21.2471 57.55 21.1637 57.425 22.0815 56.2998C22.2066 56.1748 22.29 56.1748 22.3735 56.1748ZM18.9526 57.2583C18.8275 57.1332 18.7858 57.1332 18.7858 57.1749C18.7441 57.2999 19.3281 57.9667 19.3281 57.9667L19.787 58.4251L18.452 57.7583C18.4103 57.7167 18.3269 57.675 18.2435 57.6333C18.1183 57.55 17.8263 57.3416 17.9514 56.2581C17.9514 56.1748 17.9931 56.1748 18.0766 56.1748C18.16 56.1748 18.16 56.1748 19.9956 57.425C20.1625 57.55 20.2042 57.6333 20.2042 57.7167V57.8C20.2042 58.0084 20.2042 58.2584 20.2459 58.4668L19.6618 58.0084C19.495 57.7167 19.203 57.4666 18.9526 57.2583ZM21.414 54.9663C19.6618 53.341 19.6201 53.341 19.4533 53.2994C19.2864 53.2994 19.2447 53.341 19.1612 53.4244C18.16 54.9663 18.2852 55.133 18.3686 55.2996C18.4103 55.383 18.4938 55.4247 18.5355 55.4663C18.9526 55.7581 19.4533 56.1748 19.8704 56.4665L19.7453 55.758C19.7453 55.758 19.6201 54.7579 19.6618 54.6746C19.7036 54.5912 19.787 54.5495 19.8704 54.7579C20.0373 55.0496 20.2042 55.4663 20.371 55.758L20.7465 56.4665C20.8299 56.3415 20.9134 56.1748 21.0385 56.0498C21.1637 55.8414 21.414 55.633 21.4974 55.4247C21.6226 55.2163 21.4557 55.0496 21.414 54.9663ZM17.4925 57.9667C17.1588 57.7583 16.6999 57.4666 16.3662 57.2583C16.241 57.1749 16.1993 57.1749 16.1993 57.1333C16.1993 57.2166 17.2422 57.8834 17.3257 57.9667L18.16 58.4251C17.7011 58.2167 17.1171 57.9667 16.6999 57.7583C16.6582 57.7167 16.5748 57.675 16.4913 57.6333C15.8238 57.2166 15.2815 56.5498 15.0729 56.2581C15.0312 56.2164 15.0312 56.2164 15.0312 56.1748H15.0729C15.0729 56.1748 15.1564 56.1748 15.2398 56.2581C15.949 56.7165 16.2827 56.9249 17.2005 57.425C17.6594 57.7167 17.9931 58.1334 18.452 58.4251L17.4925 57.9667ZM17.8263 53.1743C17.7428 53.341 17.6177 53.5494 17.5343 53.7161L16.9919 52.7576C16.7833 52.3826 16.533 51.8825 16.3244 51.4658C16.1993 51.2157 16.0741 51.2574 16.0741 51.3407C16.0324 51.4658 16.2827 52.7576 16.2827 52.7576L16.4913 53.7161C15.9907 53.341 15.3649 52.7993 14.9061 52.4242L14.6975 52.2159C14.5723 52.0075 14.4472 51.7991 15.4484 49.9239C15.5318 49.7989 15.6152 49.7572 15.7404 49.7989C15.8656 49.8405 15.8656 49.8405 18.1183 51.8408C18.2852 52.0075 18.3686 52.2159 18.2852 52.4242C18.2017 52.6326 17.9931 52.966 17.8263 53.1743ZM13.9883 49.6322C14.1134 49.3405 14.3637 48.9654 14.4472 48.6737C14.4889 48.4653 14.4472 48.2153 14.2386 48.0069C13.5294 47.2985 12.8619 46.5067 12.1527 45.7983C12.0693 45.7149 11.9441 45.6733 11.9024 45.6733C11.7772 45.6733 11.6938 45.7149 11.6521 45.8399C10.7343 47.9236 10.9429 48.2986 10.9846 48.4653C11.0263 48.5903 11.1098 48.6737 11.1515 48.7154C11.5687 49.1738 12.1944 49.7989 12.6533 50.2573L12.403 49.1321C12.403 49.1321 12.1527 47.6319 12.1944 47.5069C12.1944 47.4652 12.3196 47.3402 12.4447 47.6735C12.6533 48.1319 12.9036 48.7154 13.1122 49.1738L13.6962 50.2989C13.7797 50.0906 13.9048 49.8405 13.9883 49.6322ZM20.4545 52.4659C20.4128 52.4242 20.3293 52.3409 20.3293 52.2575C20.2459 51.9658 20.2459 51.9242 21.998 49.9655C22.1232 49.8405 22.2066 49.7989 22.3735 49.8405C22.5404 49.8822 22.6655 49.8822 24.3342 51.8825C24.5011 52.1325 24.4176 52.3409 24.3342 52.4659C23.9587 53.0077 23.4164 53.3827 22.9992 53.8411L22.7907 52.8826C22.7072 52.5076 22.5821 52.0075 22.4986 51.5908C22.4152 51.3407 22.29 51.3824 22.2483 51.4658C22.2483 51.5074 22.2066 51.5491 21.9563 52.841L21.7894 53.7994C21.414 53.341 20.8717 52.841 20.4545 52.4659ZM25.4606 49.1738C25.9612 47.5902 25.9612 47.5902 25.9612 47.5485C26.0029 47.4652 26.1698 47.3818 26.2532 47.6735C26.2949 48.1319 26.3784 48.7154 26.4201 49.1738L26.5035 50.2989C28.4642 48.4237 28.4642 48.4237 28.2139 48.0069C26.5452 45.7566 26.4201 45.7149 26.2532 45.6733C26.0446 45.6733 25.9612 45.7149 25.836 45.8399C23.5833 48.2153 23.5833 48.2153 23.625 48.4653C23.625 48.5903 23.7084 48.6737 23.7502 48.7154C24.1673 49.1738 24.7097 49.7989 25.0851 50.2573L25.4606 49.1738ZM20.079 44.5481C20.0373 44.4647 19.9539 44.3814 19.9122 44.2564C19.8287 43.923 19.8287 43.923 22.1232 41.3394C22.2483 41.2144 22.3318 41.1727 22.5404 41.1727C22.7907 41.2144 22.7907 41.2144 24.96 43.7146C25.2937 44.173 25.2937 44.173 23.2913 46.2983L23.041 45.0482C22.9158 44.5481 22.7907 43.8813 22.6655 43.3813C22.5821 43.0479 22.4152 43.1312 22.3318 43.2562C22.29 43.3396 22.29 43.3396 21.9146 45.0482L21.6643 46.2983C21.2471 45.7566 20.5796 45.0482 20.079 44.5481ZM31.8434 49.1738L31.301 50.2989C31.0924 49.8405 30.7587 49.2154 30.5084 48.757C30.4667 48.6737 30.4667 48.632 30.4667 48.507C30.4667 48.257 30.6335 48.0903 30.6753 48.0486C31.3427 47.2985 32.0937 46.6317 32.7611 45.8816C32.8446 45.7566 32.9697 45.7149 33.1366 45.7149C33.5121 45.7983 34.2212 48.0069 34.2212 48.0486C34.3047 48.5487 34.2213 48.5903 32.4274 50.3406L32.636 49.2154C32.6777 48.757 32.7611 48.1736 32.8029 47.7152C32.8029 47.4235 32.636 47.5485 32.636 47.5485C32.0937 47.9653 32.1354 48.632 31.8434 49.1738ZM27.8385 44.5481C27.7968 44.4647 27.755 44.3814 27.7133 44.2564C27.6716 43.9647 27.8385 43.798 27.8802 43.7146C28.5477 42.8812 29.2986 42.1311 30.0078 41.3394C30.1329 41.2144 30.2164 41.1727 30.425 41.1727C30.5501 41.2144 30.7587 41.2144 32.344 43.7146C32.5943 44.2147 32.5943 44.2147 30.6335 46.2983L30.5501 45.0482C30.5084 44.5481 30.4667 43.8813 30.3832 43.3813C30.3415 43.0479 30.1747 43.1729 30.1329 43.2146L29.5489 45.0482L29.1317 46.2983C28.7563 45.7566 28.2139 45.0482 27.8385 44.5481ZM27.3379 53.7578C27.0876 53.341 26.7955 52.841 26.5452 52.4659C26.5035 52.4242 26.4618 52.3409 26.4618 52.2575C26.4618 52.0492 26.4618 52.0492 28.7145 49.9655C28.8397 49.8405 28.9648 49.7989 29.09 49.8405C29.4237 49.8822 30.0912 51.4241 30.2581 51.8825C30.3415 52.2575 30.3415 52.2575 28.4225 53.7994L28.5894 52.841C28.6311 52.4659 28.7145 51.9658 28.7145 51.5491C28.7145 51.2574 28.5477 51.3824 28.5477 51.3824C28.506 51.3824 28.506 51.3824 27.7968 52.7993L27.3379 53.7578ZM12.9036 44.5481C12.8619 44.4647 12.7785 44.3814 12.7367 44.2564C12.6533 43.923 12.6116 43.798 14.4054 41.3394C14.5306 41.2144 14.614 41.1727 14.7809 41.1727C14.8226 41.1727 14.9478 41.2144 15.0312 41.2978C15.7821 42.0894 16.4496 42.9229 17.1588 43.7146C17.4091 44.048 17.3257 44.2981 17.2839 44.4647C16.9502 45.1732 16.3662 45.6733 15.9073 46.2983L15.4901 45.0482C15.3232 44.5481 15.1564 43.8813 14.9895 43.3813C14.8643 43.0479 14.7392 43.1729 14.6975 43.2146C14.614 43.2979 14.5723 44.2564 14.4889 45.0482L14.4472 46.2983C14.03 45.7566 13.3625 45.0482 12.9036 44.5481ZM28.9231 57.2583C28.6728 57.4666 28.2556 57.7583 28.0053 57.9667L27.2127 58.4251C28.8397 57.7167 29.0066 57.5916 29.2151 57.425C29.5906 57.0499 30.2164 56.2581 30.0912 56.1748C30.0495 56.1748 29.9661 56.1748 29.8409 56.2581C29.09 56.7165 28.9231 56.8415 27.9219 57.3833C27.755 57.4666 27.6716 57.55 27.5882 57.5916C27.5047 57.6333 27.5047 57.675 27.463 57.7167C27.2961 57.925 27.0458 58.1751 26.8373 58.3834L27.7133 57.925C27.9219 57.8 28.798 57.2166 28.8397 57.1749C28.9648 57.0916 28.9648 57.0916 29.0066 57.0916C29.0066 57.1749 29.0066 57.1749 28.9231 57.2583ZM18.4938 49.1738C18.4938 49.1738 18.6189 47.6735 18.6606 47.5485C18.7023 47.4235 18.8692 47.3818 18.9526 47.6735C19.0778 48.1319 19.2864 48.7154 19.4533 49.1738L19.8287 50.2989C20.2876 49.7572 20.8299 49.2988 21.1637 48.6737C21.2471 48.5487 21.2888 48.2986 21.0802 48.0069C18.8692 45.7149 18.8692 45.7149 18.6606 45.6733C18.452 45.6733 18.3686 45.7149 18.2852 45.8399C16.4913 48.0903 16.533 48.1736 16.6165 48.4653C16.6582 48.5903 16.7416 48.6737 16.7833 48.7154C17.2839 49.1738 17.9097 49.7989 18.4103 50.2573L18.4938 49.1738ZM26.6704 56.1748C26.5869 56.1748 26.5035 56.1748 26.4201 56.2581C24.7097 57.5083 24.7097 57.5083 24.6679 57.6333V57.7583C24.7097 57.9667 24.7514 58.2167 24.7931 58.4251L25.2937 57.9667C25.4189 57.8417 25.7943 57.425 25.9612 57.2166L26.0446 57.1333C26.0446 57.1333 26.1281 57.0916 26.0863 57.2166C25.9612 57.425 25.7943 57.7167 25.6692 57.925L25.2937 58.3834C26.7955 57.5916 26.7955 57.5916 26.879 57.3833C26.879 57.3833 26.9624 56.2164 26.6704 56.1748Z" fill="#D15E14"/>
<path id="Vector_4" d="M22.7488 8.91816C23.1659 8.91816 23.1659 10.9601 23.458 12.9604C24.2089 11.4185 25.0432 10.7101 24.8346 10.2517C23.2911 6.50115 23.6665 -0.0414746 22.7488 0.000198111C21.831 -0.0414746 22.2064 6.50115 20.6629 10.2517C20.4543 10.7101 21.2887 11.4185 22.0396 12.9604C22.3316 10.9185 22.3316 8.87649 22.7488 8.91816Z" fill="#68813C"/>
<path id="Vector_5" d="M20.6214 15.6272C20.9134 15.5022 21.4974 16.2106 22.2901 17.2941H23.1244C23.9171 16.2106 24.5011 15.5022 24.7931 15.6272C25.0851 15.7522 24.8766 16.419 24.4594 17.3775C24.6262 17.4191 24.8348 17.4191 25.0017 17.4608C25.7109 16.294 26.5035 15.2105 27.2127 14.6271C27.4213 10.4598 31.3845 6.37587 31.3845 6.37587C31.3845 6.37587 32.4691 5.20903 30.5918 6.1675C25.252 8.87623 22.9575 16.2106 22.7072 17.0441C22.4569 16.2106 20.1625 8.87623 14.8226 6.1675C12.9454 5.20903 14.03 6.37587 14.03 6.37587C14.03 6.37587 17.9932 10.5015 18.2018 14.6271C18.9527 15.2105 19.7453 16.3356 20.4545 17.5025C20.6214 17.4608 20.7882 17.4608 20.9968 17.4191C20.5797 16.419 20.3711 15.7522 20.6214 15.6272ZM30.6334 14.9187C31.0089 15.1687 29.8408 16.5856 28.4224 18.4192L28.7979 18.5442C29.1316 18.2942 29.5071 18.0858 29.9242 17.8358C31.4678 15.1687 33.4702 12.9601 38.6015 11.6265C39.4775 11.4182 39.5193 10.7514 38.3095 10.7514C33.9291 10.7931 27.8384 15.0854 26.0445 17.7108C26.2531 17.7524 26.5034 17.8358 26.712 17.8774C28.6727 16.0855 30.258 14.5853 30.6334 14.9187ZM44.5672 15.2937C40.1867 14.2519 33.0531 16.6273 29.3819 18.9609C29.7157 19.1276 30.0077 19.2943 30.2997 19.5027C32.469 18.4192 34.096 17.6274 34.3463 18.0025C34.6383 18.3358 33.4285 19.2526 31.7181 20.5445C31.9684 20.7529 32.2187 20.9612 32.4273 21.1696C35.1389 18.5442 38.1843 16.5856 44.5672 16.4606C45.6519 16.3356 45.9439 15.6271 44.5672 15.2937ZM7.27177 10.7099C6.06197 10.7099 6.10369 11.3767 6.97975 11.585C12.111 12.9602 14.1134 15.1272 15.657 17.7943C16.0742 18.0443 16.4496 18.2527 16.7834 18.5027L17.1588 18.3777C15.7404 16.5441 14.5723 15.1272 14.9478 14.8772C15.3232 14.5855 16.9502 16.0857 18.9527 17.8776C19.1613 17.7943 19.3698 17.7526 19.5784 17.7109C17.8263 15.0855 11.6938 10.7516 7.27177 10.7099ZM13.9465 20.5862C12.1526 19.2526 10.8594 18.2942 11.1514 17.9608C11.4434 17.5857 13.1121 18.4192 15.3649 19.5444C15.6569 19.336 15.9489 19.1693 16.241 19.0026C12.6532 16.6689 5.3944 14.2519 0.930626 15.2937C-0.446051 15.6271 -0.154028 16.3772 0.888908 16.3772C7.35513 16.5022 10.4005 18.5442 13.1539 21.2529C13.4459 21.0029 13.6962 20.7945 13.9465 20.5862Z" fill="#68813C"/>
</g>
</svg>
